# xmcd
#
# Track frame offsets:
#	150
#	25971
#	47552
#	59750
#	79297
#	95046
#	113352
#	136796
#	164079
#	184082
#
# Disc length: 3250 seconds
# Revision: 0
# Processed by: cddbd v1.5.2PL0 Copyright (c) Steve Scherf et al.
# Submitted via: dBpowerAMP V12.0
#
DISCID=860cb00a
DTITLE=Tony Vega Band - Shakin' at The Easy
DYEAR=2014
DGENRE=Blues infused roots 'n roll
TTITLE0=Devil's Daughter
TTITLE1=Blackwater Roll
TTITLE2=It Ain't Easy
TTITLE3=Sittin' On the Boat Dock
TTITLE4=Marked Deck
TTITLE5=Up and Gone
TTITLE6=Trick or Treat
TTITLE7=Pike County Blues
TTITLE8=Cram Jam
TTITLE9=Traveling Riverside Blues
EXTD=
EXTT0=
EXTT1=
EXTT2=
EXTT3=
EXTT4=
EXTT5=
EXTT6=
EXTT7=
EXTT8=
EXTT9=
PLAYORDER=
